<svg xmlns="http://www.w3.org/2000/svg" version="1.1" xmlns:xlink="http://www.w3.org/1999/xlink" xmlns:svgjs="http://svgjs.dev/svgjs" width="1440" height="560" preserveAspectRatio="none" viewBox="0 0 1440 560"><g mask="url(&quot;#SvgjsMask1093&quot;)" fill="none"><rect width="1440" height="560" x="0" y="0" fill="#1e3266"></rect><path d="M1488 560L0 560 L0 284.75Q15.73 228.48, 72 244.21Q125.96 178.17, 192 232.13Q213.56 181.69, 264 203.26Q331.22 150.48, 384 217.7Q454.65 216.35, 456 287.01Q467.15 226.16, 528 237.31Q570.65 159.96, 648 202.61Q702.96 137.57, 768 192.54Q828.36 180.89, 840 241.25Q870.1 199.34, 912 229.44Q971.43 216.87, 984 276.3Q1008.91 229.22, 1056 254.13Q1140.32 218.45, 1176 302.77Q1197.18 203.95, 1296 225.14Q1368.12 177.25, 1416 249.37Q1468.58 229.95, 1488 282.53z" fill="#182f5d"></path><path d="M1512 560L0 560 L0 370.92Q20.38 271.3, 120 291.67Q154.45 254.12, 192 288.57Q255.06 279.63, 264 342.69Q304.38 263.06, 384 303.44Q477.74 277.18, 504 370.91Q583.31 330.22, 624 409.53Q627.46 340.99, 696 344.45Q733.3 261.75, 816 299.04Q844.02 255.06, 888 283.09Q968.62 243.7, 1008 324.32Q1057.13 301.45, 1080 350.59Q1159.72 310.31, 1200 390.03Q1229.11 299.13, 1320 328.24Q1386.09 274.33, 1440 340.42Q1501.73 330.15, 1512 391.89z" fill="#25467d"></path><path d="M1464 560L0 560 L0 376.27Q40.63 344.9, 72 385.53Q180.22 373.75, 192 481.96Q221.6 391.56, 312 421.16Q352.33 341.5, 432 381.83Q500.88 330.7, 552 399.58Q629.3 356.88, 672 434.18Q747.39 389.58, 792 464.97Q845.54 398.51, 912 452.05Q922.57 390.62, 984 401.19Q1014.17 359.36, 1056 389.53Q1115.4 376.93, 1128 436.33Q1173.56 361.89, 1248 407.45Q1277.81 365.25, 1320 395.06Q1349.46 352.52, 1392 381.98Q1450.6 368.58, 1464 427.18z" fill="#356cb1"></path><path d="M1464 560L0 560 L0 561.29Q9.95 499.24, 72 509.18Q142.14 459.32, 192 529.45Q261.87 479.32, 312 549.18Q385.8 502.98, 432 576.78Q469.71 494.49, 552 532.2Q604.12 512.32, 624 564.43Q629.99 498.42, 696 504.41Q726.5 462.91, 768 493.41Q874.47 479.88, 888 586.36Q895.22 473.58, 1008 480.79Q1066.45 467.25, 1080 525.7Q1129.45 455.15, 1200 504.61Q1224.55 457.15, 1272 481.7Q1325.72 415.42, 1392 469.15Q1451.97 457.12, 1464 517.09z" fill="white"></path></g><defs><mask id="SvgjsMask1093"><rect width="1440" height="560" fill="#ffffff"></rect></mask></defs></svg>